<svg width="429" height="303" viewBox="0 0 429 303" fill="none" xmlns="http://www.w3.org/2000/svg">
<ellipse opacity="0.8" cx="6.49281" cy="145.449" rx="4.79312" ry="5.60176" transform="rotate(-21.1726 6.49281 145.449)" fill="#F8C400"/>
<ellipse opacity="0.8" cx="42.2493" cy="131.599" rx="4.79312" ry="5.60176" transform="rotate(-21.1726 42.2493 131.599)" fill="#F8C400"/>
<ellipse opacity="0.8" cx="78.0058" cy="117.75" rx="4.79312" ry="5.60176" transform="rotate(-21.1726 78.0058 117.75)" fill="#F8C400"/>
<ellipse opacity="0.8" cx="113.763" cy="103.901" rx="4.79312" ry="5.60176" transform="rotate(-21.1726 113.763 103.901)" fill="#F8C400"/>
<ellipse opacity="0.8" cx="149.519" cy="90.0513" rx="4.79312" ry="5.60176" transform="rotate(-21.1726 149.519 90.0513)" fill="#F8C400"/>
<ellipse opacity="0.8" cx="185.276" cy="76.2017" rx="4.79312" ry="5.60176" transform="rotate(-21.1726 185.276 76.2017)" fill="#F8C400"/>
<ellipse opacity="0.8" cx="221.032" cy="62.3521" rx="4.79312" ry="5.60176" transform="rotate(-21.1726 221.032 62.3521)" fill="#F8C400"/>
<ellipse opacity="0.8" cx="256.789" cy="48.5032" rx="4.79312" ry="5.60176" transform="rotate(-21.1726 256.789 48.5032)" fill="#F8C400"/>
<ellipse opacity="0.8" cx="292.545" cy="34.6536" rx="4.79312" ry="5.60176" transform="rotate(-21.1726 292.545 34.6536)" fill="#F8C400"/>
<ellipse opacity="0.8" cx="328.302" cy="20.8042" rx="4.79312" ry="5.60176" transform="rotate(-21.1726 328.302 20.8042)" fill="#F8C400"/>
<ellipse opacity="0.8" cx="364.058" cy="6.95461" rx="4.79312" ry="5.60176" transform="rotate(-21.1726 364.058 6.95461)" fill="#F8C400"/>
<ellipse opacity="0.6" cx="25.9159" cy="195.595" rx="4.79312" ry="5.60176" transform="rotate(-21.1726 25.9159 195.595)" fill="#F8C400"/>
<ellipse opacity="0.6" cx="61.6724" cy="181.746" rx="4.79312" ry="5.60176" transform="rotate(-21.1726 61.6724 181.746)" fill="#F8C400"/>
<ellipse opacity="0.6" cx="97.429" cy="167.897" rx="4.79312" ry="5.60176" transform="rotate(-21.1726 97.429 167.897)" fill="#F8C400"/>
<ellipse opacity="0.6" cx="133.185" cy="154.047" rx="4.79312" ry="5.60176" transform="rotate(-21.1726 133.185 154.047)" fill="#F8C400"/>
<ellipse opacity="0.6" cx="168.942" cy="140.198" rx="4.79312" ry="5.60176" transform="rotate(-21.1726 168.942 140.198)" fill="#F8C400"/>
<ellipse opacity="0.6" cx="204.699" cy="126.348" rx="4.79312" ry="5.60176" transform="rotate(-21.1726 204.699 126.348)" fill="#F8C400"/>
<ellipse opacity="0.6" cx="240.455" cy="112.5" rx="4.79312" ry="5.60176" transform="rotate(-21.1726 240.455 112.5)" fill="#F8C400"/>
<ellipse opacity="0.6" cx="276.212" cy="98.6499" rx="4.79312" ry="5.60176" transform="rotate(-21.1726 276.212 98.6499)" fill="#F8C400"/>
<ellipse opacity="0.6" cx="311.969" cy="84.8003" rx="4.79312" ry="5.60176" transform="rotate(-21.1726 311.969 84.8003)" fill="#F8C400"/>
<ellipse opacity="0.6" cx="347.725" cy="70.9509" rx="4.79312" ry="5.60176" transform="rotate(-21.1726 347.725 70.9509)" fill="#F8C400"/>
<ellipse opacity="0.6" cx="383.482" cy="57.1018" rx="4.79312" ry="5.60176" transform="rotate(-21.1726 383.482 57.1018)" fill="#F8C400"/>
<ellipse opacity="0.5" cx="45.3389" cy="245.742" rx="4.79312" ry="5.60176" transform="rotate(-21.1726 45.3389 245.742)" fill="#F8C400"/>
<ellipse opacity="0.5" cx="81.0956" cy="231.893" rx="4.79312" ry="5.60176" transform="rotate(-21.1726 81.0956 231.893)" fill="#F8C400"/>
<ellipse opacity="0.5" cx="116.852" cy="218.044" rx="4.79312" ry="5.60176" transform="rotate(-21.1726 116.852 218.044)" fill="#F8C400"/>
<ellipse opacity="0.5" cx="152.609" cy="204.194" rx="4.79312" ry="5.60176" transform="rotate(-21.1726 152.609 204.194)" fill="#F8C400"/>
<ellipse opacity="0.5" cx="188.365" cy="190.345" rx="4.79312" ry="5.60176" transform="rotate(-21.1726 188.365 190.345)" fill="#F8C400"/>
<ellipse opacity="0.5" cx="224.122" cy="176.495" rx="4.79312" ry="5.60176" transform="rotate(-21.1726 224.122 176.495)" fill="#F8C400"/>
<ellipse opacity="0.5" cx="259.878" cy="162.646" rx="4.79312" ry="5.60176" transform="rotate(-21.1726 259.878 162.646)" fill="#F8C400"/>
<ellipse opacity="0.5" cx="295.635" cy="148.797" rx="4.79312" ry="5.60176" transform="rotate(-21.1726 295.635 148.797)" fill="#F8C400"/>
<ellipse opacity="0.5" cx="331.391" cy="134.947" rx="4.79312" ry="5.60176" transform="rotate(-21.1726 331.391 134.947)" fill="#F8C400"/>
<ellipse opacity="0.5" cx="367.148" cy="121.098" rx="4.79312" ry="5.60176" transform="rotate(-21.1726 367.148 121.098)" fill="#F8C400"/>
<ellipse opacity="0.5" cx="402.905" cy="107.249" rx="4.79312" ry="5.60176" transform="rotate(-21.1726 402.905 107.249)" fill="#F8C400"/>
<ellipse cx="64.762" cy="295.889" rx="4.79312" ry="5.60176" transform="rotate(-21.1726 64.762 295.889)" fill="#F8C400"/>
<ellipse cx="100.519" cy="282.04" rx="4.79312" ry="5.60176" transform="rotate(-21.1726 100.519 282.04)" fill="#F8C400"/>
<ellipse cx="136.275" cy="268.19" rx="4.79312" ry="5.60176" transform="rotate(-21.1726 136.275 268.19)" fill="#F8C400"/>
<ellipse cx="172.032" cy="254.341" rx="4.79312" ry="5.60176" transform="rotate(-21.1726 172.032 254.341)" fill="#F8C400"/>
<ellipse cx="207.788" cy="240.491" rx="4.79312" ry="5.60176" transform="rotate(-21.1726 207.788 240.491)" fill="#F8C400"/>
<ellipse cx="243.545" cy="226.642" rx="4.79312" ry="5.60176" transform="rotate(-21.1726 243.545 226.642)" fill="#F8C400"/>
<ellipse cx="279.301" cy="212.793" rx="4.79312" ry="5.60176" transform="rotate(-21.1726 279.301 212.793)" fill="#F8C400"/>
<ellipse cx="315.058" cy="198.943" rx="4.79312" ry="5.60176" transform="rotate(-21.1726 315.058 198.943)" fill="#F8C400"/>
<ellipse cx="350.815" cy="185.094" rx="4.79312" ry="5.60176" transform="rotate(-21.1726 350.815 185.094)" fill="#F8C400"/>
<ellipse cx="386.571" cy="171.245" rx="4.79312" ry="5.60176" transform="rotate(-21.1726 386.571 171.245)" fill="#F8C400"/>
<ellipse cx="422.328" cy="157.395" rx="4.79312" ry="5.60176" transform="rotate(-21.1726 422.328 157.395)" fill="#F8C400"/>
</svg>
